<svg xmlns:xlink="http://www.w3.org/1999/xlink" width="75ex" height="8.176ex" style="font-size: 15px; vertical-align: -4.338ex; max-width: 450;" viewBox="0 -1652.5 32291.5 3520.2" role="img" focusable="false" xmlns="http://www.w3.org/2000/svg">
<defs>
<path stroke-width="1" id="E1-MJMATHI-50" d="M287 628Q287 635 230 637Q206 637 199 638T192 648Q192 649 194 659Q200 679 203 681T397 683Q587 682 600 680Q664 669 707 631T751 530Q751 453 685 389Q616 321 507 303Q500 302 402 301H307L277 182Q247 66 247 59Q247 55 248 54T255 50T272 48T305 46H336Q342 37 342 35Q342 19 335 5Q330 0 319 0Q316 0 282 1T182 2Q120 2 87 2T51 1Q33 1 33 11Q33 13 36 25Q40 41 44 43T67 46Q94 46 127 49Q141 52 146 61Q149 65 218 339T287 628ZM645 554Q645 567 643 575T634 597T609 619T560 635Q553 636 480 637Q463 637 445 637T416 636T404 636Q391 635 386 627Q384 621 367 550T332 412T314 344Q314 342 395 342H407H430Q542 342 590 392Q617 419 631 471T645 554Z"></path>
<path stroke-width="1" id="E1-MJMAIN-28" d="M94 250Q94 319 104 381T127 488T164 576T202 643T244 695T277 729T302 750H315H319Q333 750 333 741Q333 738 316 720T275 667T226 581T184 443T167 250T184 58T225 -81T274 -167T316 -220T333 -241Q333 -250 318 -250H315H302L274 -226Q180 -141 137 -14T94 250Z"></path>
<path stroke-width="1" id="E1-MJMATHI-79" d="M21 287Q21 301 36 335T84 406T158 442Q199 442 224 419T250 355Q248 336 247 334Q247 331 231 288T198 191T182 105Q182 62 196 45T238 27Q261 27 281 38T312 61T339 94Q339 95 344 114T358 173T377 247Q415 397 419 404Q432 431 462 431Q475 431 483 424T494 412T496 403Q496 390 447 193T391 -23Q363 -106 294 -155T156 -205Q111 -205 77 -183T43 -117Q43 -95 50 -80T69 -58T89 -48T106 -45Q150 -45 150 -87Q150 -107 138 -122T115 -142T102 -147L99 -148Q101 -153 118 -160T152 -167H160Q177 -167 186 -165Q219 -156 247 -127T290 -65T313 -9T321 21L315 17Q309 13 296 6T270 -6Q250 -11 231 -11Q185 -11 150 11T104 82Q103 89 103 113Q103 170 138 262T173 379Q173 380 173 381Q173 390 173 393T169 400T158 404H154Q131 404 112 385T82 344T65 302T57 280Q55 278 41 278H27Q21 284 21 287Z"></path>
<path stroke-width="1" id="E1-MJMATHI-69" d="M184 600Q184 624 203 642T247 661Q265 661 277 649T290 619Q290 596 270 577T226 557Q211 557 198 567T184 600ZM21 287Q21 295 30 318T54 369T98 420T158 442Q197 442 223 419T250 357Q250 340 236 301T196 196T154 83Q149 61 149 51Q149 26 166 26Q175 26 185 29T208 43T235 78T260 137Q263 149 265 151T282 153Q302 153 302 143Q302 135 293 112T268 61T223 11T161 -11Q129 -11 102 10T74 74Q74 91 79 106T122 220Q160 321 166 341T173 380Q173 404 156 404H154Q124 404 99 371T61 287Q60 286 59 284T58 281T56 279T53 278T49 278T41 278H27Q21 284 21 287Z"></path>
<path stroke-width="1" id="E1-MJMAIN-29" d="M60 749L64 750Q69 750 74 750H86L114 726Q208 641 251 514T294 250Q294 182 284 119T261 12T224 -76T186 -143T145 -194T113 -227T90 -246Q87 -249 86 -250H74Q66 -250 63 -250T58 -247T55 -238Q56 -237 66 -225Q221 -64 221 250T66 725Q56 737 55 738Q55 746 60 749Z"></path>
<path stroke-width="1" id="E1-MJMAIN-3D" d="M56 347Q56 360 70 367H707Q722 359 722 347Q722 336 708 328L390 327H72Q56 332 56 347ZM56 153Q56 168 72 173H708Q722 163 722 153Q722 140 707 133H70Q56 140 56 153Z"></path>
<path stroke-width="1" id="E1-MJMATHI-65" d="M39 168Q39 225 58 272T107 350T174 402T244 433T307 442H310Q355 442 388 420T421 355Q421 265 310 237Q261 224 176 223Q139 223 138 221Q138 219 132 186T125 128Q125 81 146 54T209 26T302 45T394 111Q403 121 406 121Q410 121 419 112T429 98T420 82T390 55T344 24T281 -1T205 -11Q126 -11 83 42T39 168ZM373 353Q367 405 305 405Q272 405 244 391T199 357T170 316T154 280T149 261Q149 260 169 260Q282 260 327 284T373 353Z"></path>
<path stroke-width="1" id="E1-MJMATHI-73" d="M131 289Q131 321 147 354T203 415T300 442Q362 442 390 415T419 355Q419 323 402 308T364 292Q351 292 340 300T328 326Q328 342 337 354T354 372T367 378Q368 378 368 379Q368 382 361 388T336 399T297 405Q249 405 227 379T204 326Q204 301 223 291T278 274T330 259Q396 230 396 163Q396 135 385 107T352 51T289 7T195 -10Q118 -10 86 19T53 87Q53 126 74 143T118 160Q133 160 146 151T160 120Q160 94 142 76T111 58Q109 57 108 57T107 55Q108 52 115 47T146 34T201 27Q237 27 263 38T301 66T318 97T323 122Q323 150 302 164T254 181T195 196T148 231Q131 256 131 289Z"></path>
<path stroke-width="1" id="E1-MJMAIN-2C" d="M78 35T78 60T94 103T137 121Q165 121 187 96T210 8Q210 -27 201 -60T180 -117T154 -158T130 -185T117 -194Q113 -194 104 -185T95 -172Q95 -168 106 -156T131 -126T157 -76T173 -3V9L172 8Q170 7 167 6T161 3T152 1T140 0Q113 0 96 17Z"></path>
<path stroke-width="1" id="E1-MJSZ1-2211" d="M61 748Q64 750 489 750H913L954 640Q965 609 976 579T993 533T999 516H979L959 517Q936 579 886 621T777 682Q724 700 655 705T436 710H319Q183 710 183 709Q186 706 348 484T511 259Q517 250 513 244L490 216Q466 188 420 134T330 27L149 -187Q149 -188 362 -188Q388 -188 436 -188T506 -189Q679 -189 778 -162T936 -43Q946 -27 959 6H999L913 -249L489 -250Q65 -250 62 -248Q56 -246 56 -239Q56 -234 118 -161Q186 -81 245 -11L428 206Q428 207 242 462L57 717L56 728Q56 744 61 748Z"></path>
<path stroke-width="1" id="E1-MJMAIN-2032" d="M79 43Q73 43 52 49T30 61Q30 68 85 293T146 528Q161 560 198 560Q218 560 240 545T262 501Q262 496 260 486Q259 479 173 263T84 45T79 43Z"></path>
<path stroke-width="1" id="E1-MJMAIN-2208" d="M84 250Q84 372 166 450T360 539Q361 539 377 539T419 540T469 540H568Q583 532 583 520Q583 511 570 501L466 500Q355 499 329 494Q280 482 242 458T183 409T147 354T129 306T124 272V270H568Q583 262 583 250T568 230H124V228Q124 207 134 177T167 112T231 48T328 7Q355 1 466 0H570Q583 -10 583 -20Q583 -32 568 -40H471Q464 -40 446 -40T417 -41Q262 -41 172 45Q84 127 84 250Z"></path>
<path stroke-width="1" id="E1-MJCAL-59" d="M65 599Q65 618 107 650T204 683Q267 683 312 643T380 533T414 385T424 217Q424 186 423 160T422 123Q426 123 468 170T567 304T650 469Q661 503 661 519Q661 546 639 570Q615 591 583 591Q569 591 569 616Q569 640 582 661T613 683Q624 683 638 679T671 664T702 625T714 558Q714 472 639 329T426 45Q361 -21 282 -82T154 -143Q97 -143 64 -104T31 -20Q31 4 44 25T70 46Q78 46 81 39T87 16T97 -9Q127 -51 182 -51Q184 -51 187 -50H190Q233 -41 314 25Q330 36 330 40Q336 79 336 178Q336 508 223 594Q199 614 158 619L148 620L139 611Q111 586 83 586Q65 586 65 599Z"></path>
</defs>
<g stroke="currentColor" fill="currentColor" stroke-width="0" transform="matrix(1 0 0 -1 0 0)">
<g transform="translate(10957,0)">
 <use xlink:href="#E1-MJMATHI-50" x="0" y="0"></use>
<g transform="translate(918,0)">
 <use xlink:href="#E1-MJMAIN-28" x="0" y="0"></use>
<g transform="translate(389,0)">
 <use xlink:href="#E1-MJMATHI-79" x="0" y="0"></use>
 <use transform="scale(0.707)" xlink:href="#E1-MJMATHI-69" x="693" y="-213"></use>
</g>
 <use xlink:href="#E1-MJMAIN-29" x="1224" y="0"></use>
</g>
 <use xlink:href="#E1-MJMAIN-3D" x="2809" y="0"></use>
<g transform="translate(3588,0)">
<g transform="translate(397,0)">
<rect stroke="none" width="6270" height="60" x="0" y="220"></rect>
<g transform="translate(1882,676)">
 <use xlink:href="#E1-MJMATHI-65" x="0" y="0"></use>
<g transform="translate(466,362)">
 <use transform="scale(0.707)" xlink:href="#E1-MJMATHI-73" x="0" y="0"></use>
<g transform="translate(331,0)">
 <use transform="scale(0.707)" xlink:href="#E1-MJMAIN-28"></use>
<g transform="translate(275,0)">
 <use transform="scale(0.707)" xlink:href="#E1-MJMATHI-69" x="0" y="0"></use>
 <use transform="scale(0.707)" xlink:href="#E1-MJMAIN-2C" x="345" y="0"></use>
<g transform="translate(441,0)">
 <use transform="scale(0.707)" xlink:href="#E1-MJMATHI-79" x="0" y="0"></use>
 <use transform="scale(0.574)" xlink:href="#E1-MJMATHI-69" x="604" y="-304"></use>
</g>
</g>
 <use transform="scale(0.707)" xlink:href="#E1-MJMAIN-29" x="1884" y="0"></use>
</g>
</g>
</g>
<g transform="translate(60,-840)">
 <use xlink:href="#E1-MJSZ1-2211" x="0" y="0"></use>
<g transform="translate(1056,-287)">
 <use transform="scale(0.707)" xlink:href="#E1-MJMATHI-79" x="0" y="0"></use>
 <use transform="scale(0.574)" xlink:href="#E1-MJMAIN-2032" x="615" y="355"></use>
 <use transform="scale(0.707)" xlink:href="#E1-MJMAIN-2208" x="823" y="0"></use>
 <use transform="scale(0.707)" xlink:href="#E1-MJCAL-59" x="1490" y="0"></use>
 <use transform="scale(0.707)" xlink:href="#E1-MJMAIN-28" x="2205" y="0"></use>
 <use transform="scale(0.707)" xlink:href="#E1-MJMATHI-69" x="2594" y="0"></use>
 <use transform="scale(0.707)" xlink:href="#E1-MJMAIN-29" x="2940" y="0"></use>
</g>
<g transform="translate(3677,0)">
 <use xlink:href="#E1-MJMATHI-65" x="0" y="0"></use>
<g transform="translate(466,288)">
 <use transform="scale(0.707)" xlink:href="#E1-MJMATHI-73" x="0" y="0"></use>
<g transform="translate(331,0)">
 <use transform="scale(0.707)" xlink:href="#E1-MJMAIN-28" x="0" y="0"></use>
<g transform="translate(275,0)">
 <use transform="scale(0.707)" xlink:href="#E1-MJMATHI-69" x="0" y="0"></use>
 <use transform="scale(0.707)" xlink:href="#E1-MJMAIN-2C" x="345" y="0"></use>
<g transform="translate(441,0)">
 <use transform="scale(0.707)" xlink:href="#E1-MJMATHI-79" x="0" y="0"></use>
 <use transform="scale(0.574)" xlink:href="#E1-MJMAIN-2032" x="615" y="355"></use>
</g>
</g>
 <use transform="scale(0.707)" xlink:href="#E1-MJMAIN-29" x="1836" y="0"></use>
</g>
</g>
</g>
</g>
</g>
</g>
</g>
</g>
</svg>